<mxfile host="Electron" agent="Mozilla/5.0 (Macintosh; Intel Mac OS X 10_15_7) AppleWebKit/537.36 (KHTML, like Gecko) draw.io/26.1.1 Chrome/132.0.6834.210 Electron/34.3.3 Safari/537.36" version="26.1.1">
  <diagram id="C5RBs43oDa-KdzZeNtuy" name="Formatter Classes">
    <mxGraphModel dx="1026" dy="686" grid="1" gridSize="10" guides="1" tooltips="1" connect="1" arrows="1" fold="1" page="1" pageScale="1" pageWidth="1100" pageHeight="850" math="0" shadow="0">
      <root>
        <mxCell id="WIyWlLk6GJQsqaUBKTNV-0" />
        <mxCell id="WIyWlLk6GJQsqaUBKTNV-1" parent="WIyWlLk6GJQsqaUBKTNV-0" />
        <mxCell id="LoggingUtils" value="LoggingUtils" style="swimlane;fontStyle=1;align=center;verticalAlign=top;childLayout=stackLayout;horizontal=1;startSize=26;horizontalStack=0;resizeParent=1;resizeParentMax=0;resizeLast=0;collapsible=1;marginBottom=0;fillColor=#e1d5e7;strokeColor=#9673a6;" parent="WIyWlLk6GJQsqaUBKTNV-1" vertex="1" collapsed="1">
          <mxGeometry x="200" y="530" width="110" height="30" as="geometry">
            <mxRectangle x="40" y="40" width="320" height="70" as="alternateBounds" />
          </mxGeometry>
        </mxCell>
        <mxCell id="LoggingUtils-methods" value="+ debug(name: str, message: str, enable_pformat: bool = False): void" style="text;strokeColor=none;fillColor=none;align=left;verticalAlign=top;spacingLeft=4;spacingRight=4;overflow=hidden;rotatable=0;points=[[0,0.5],[1,0.5]];portConstraint=eastwest;" parent="LoggingUtils" vertex="1">
          <mxGeometry y="26" width="320" height="44" as="geometry" />
        </mxCell>
        <mxCell id="GenericUtils" value="GenericUtils" style="swimlane;fontStyle=1;align=center;verticalAlign=top;childLayout=stackLayout;horizontal=1;startSize=26;horizontalStack=0;resizeParent=1;resizeParentMax=0;resizeLast=0;collapsible=1;marginBottom=0;fillColor=#e1d5e7;strokeColor=#9673a6;" parent="WIyWlLk6GJQsqaUBKTNV-1" vertex="1" collapsed="1">
          <mxGeometry x="870" y="585" width="110" height="30" as="geometry">
            <mxRectangle x="40" y="180" width="320" height="70" as="alternateBounds" />
          </mxGeometry>
        </mxCell>
        <mxCell id="GenericUtils-methods" value="+ load_class(module_name: str, class_name: str, package_name: str): type" style="text;strokeColor=none;fillColor=none;align=left;verticalAlign=top;spacingLeft=4;spacingRight=4;overflow=hidden;rotatable=0;points=[[0,0.5],[1,0.5]];portConstraint=eastwest;" parent="GenericUtils" vertex="1">
          <mxGeometry y="26" width="320" height="44" as="geometry" />
        </mxCell>
        <mxCell id="Configuration" value="Configuration" style="swimlane;fontStyle=1;align=center;verticalAlign=top;childLayout=stackLayout;horizontal=1;startSize=26;horizontalStack=0;resizeParent=1;resizeParentMax=0;resizeLast=0;collapsible=1;marginBottom=0;fillColor=#e1d5e7;strokeColor=#9673a6;" parent="WIyWlLk6GJQsqaUBKTNV-1" vertex="1" collapsed="1">
          <mxGeometry x="540" y="425" width="110" height="30" as="geometry">
            <mxRectangle x="400" y="40" width="280" height="70" as="alternateBounds" />
          </mxGeometry>
        </mxCell>
        <mxCell id="Configuration-methods" value="+ str_value(key: str, default: str): str&#xa;+ list_value(key: str, default: list): list" style="text;strokeColor=none;fillColor=none;align=left;verticalAlign=top;spacingLeft=4;spacingRight=4;overflow=hidden;rotatable=0;points=[[0,0.5],[1,0.5]];portConstraint=eastwest;" parent="Configuration" vertex="1">
          <mxGeometry y="26" width="280" height="44" as="geometry" />
        </mxCell>
        <mxCell id="Exception" value="Exception" style="swimlane;fontStyle=1;align=center;verticalAlign=top;childLayout=stackLayout;horizontal=1;startSize=26;horizontalStack=0;resizeParent=1;resizeParentMax=0;resizeLast=0;collapsible=1;marginBottom=0;fillColor=#e3c800;fontColor=#000000;strokeColor=#B09500;" parent="WIyWlLk6GJQsqaUBKTNV-1" vertex="1">
          <mxGeometry x="890" y="150" width="160" height="30" as="geometry" />
        </mxCell>
        <mxCell id="FormatterUtils" value="FormatterUtils" style="swimlane;fontStyle=1;align=center;verticalAlign=top;childLayout=stackLayout;horizontal=1;startSize=26;horizontalStack=0;resizeParent=1;resizeParentMax=0;resizeLast=0;collapsible=1;marginBottom=0;fillColor=#dae8fc;strokeColor=#6c8ebf;" parent="WIyWlLk6GJQsqaUBKTNV-1" vertex="1">
          <mxGeometry x="410" y="215" width="320" height="140" as="geometry" />
        </mxCell>
        <mxCell id="FormatterUtils-attributes" value="- _instance: FormatterUtils&#xa;- _config: Configuration" style="text;strokeColor=none;fillColor=none;align=left;verticalAlign=top;spacingLeft=4;spacingRight=4;overflow=hidden;rotatable=0;points=[[0,0.5],[1,0.5]];portConstraint=eastwest;" parent="FormatterUtils" vertex="1">
          <mxGeometry y="26" width="320" height="34" as="geometry" />
        </mxCell>
        <mxCell id="FormatterUtils-line" value="" style="line;strokeWidth=1;fillColor=none;align=left;verticalAlign=middle;spacingTop=-1;spacingLeft=3;spacingRight=3;rotatable=0;labelPosition=right;points=[];portConstraint=eastwest;" parent="FormatterUtils" vertex="1">
          <mxGeometry y="60" width="320" height="8" as="geometry" />
        </mxCell>
        <mxCell id="FormatterUtils-methods" value="+ __new__(cls, *args, **kwargs): FormatterUtils&#xa;+ __init__(configuration: Configuration): void&#xa;+ get_desired_formatter_class_name(): str&#xa;+ get_desired_formatter_module_name(): str" style="text;strokeColor=none;fillColor=none;align=left;verticalAlign=top;spacingLeft=4;spacingRight=4;overflow=hidden;rotatable=0;points=[[0,0.5],[1,0.5]];portConstraint=eastwest;" parent="FormatterUtils" vertex="1">
          <mxGeometry y="68" width="320" height="72" as="geometry" />
        </mxCell>
        <mxCell id="FormatterError" value="FormatterError" style="swimlane;fontStyle=1;align=center;verticalAlign=top;childLayout=stackLayout;horizontal=1;startSize=26;horizontalStack=0;resizeParent=1;resizeParentMax=0;resizeLast=0;collapsible=1;marginBottom=0;fillColor=#dae8fc;strokeColor=#6c8ebf;" parent="WIyWlLk6GJQsqaUBKTNV-1" vertex="1">
          <mxGeometry x="850" y="245" width="240" height="80" as="geometry" />
        </mxCell>
        <mxCell id="FormatterError-attributes" value="- message: str" style="text;strokeColor=none;fillColor=none;align=left;verticalAlign=top;spacingLeft=4;spacingRight=4;overflow=hidden;rotatable=0;points=[[0,0.5],[1,0.5]];portConstraint=eastwest;" parent="FormatterError" vertex="1">
          <mxGeometry y="26" width="240" height="24" as="geometry" />
        </mxCell>
        <mxCell id="FormatterError-line" value="" style="line;strokeWidth=1;fillColor=none;align=left;verticalAlign=middle;spacingTop=-1;spacingLeft=3;spacingRight=3;rotatable=0;labelPosition=right;points=[];portConstraint=eastwest;" parent="FormatterError" vertex="1">
          <mxGeometry y="50" width="240" height="8" as="geometry" />
        </mxCell>
        <mxCell id="FormatterError-methods" value="+ __init__(message: str): void" style="text;strokeColor=none;fillColor=none;align=left;verticalAlign=top;spacingLeft=4;spacingRight=4;overflow=hidden;rotatable=0;points=[[0,0.5],[1,0.5]];portConstraint=eastwest;" parent="FormatterError" vertex="1">
          <mxGeometry y="58" width="240" height="22" as="geometry" />
        </mxCell>
        <mxCell id="FormatterFactory" value="FormatterFactory" style="swimlane;fontStyle=1;align=center;verticalAlign=top;childLayout=stackLayout;horizontal=1;startSize=26;horizontalStack=0;resizeParent=1;resizeParentMax=0;resizeLast=0;collapsible=1;marginBottom=0;fillColor=#dae8fc;strokeColor=#6c8ebf;" parent="WIyWlLk6GJQsqaUBKTNV-1" vertex="1">
          <mxGeometry x="830" y="380" width="380" height="130" as="geometry" />
        </mxCell>
        <mxCell id="FormatterFactory-attributes" value="- _instance: FormatterFactory&#xa;- _generic_utils: GenericUtils&#xa;- _config: Configuration" style="text;strokeColor=none;fillColor=none;align=left;verticalAlign=top;spacingLeft=4;spacingRight=4;overflow=hidden;rotatable=0;points=[[0,0.5],[1,0.5]];portConstraint=eastwest;" parent="FormatterFactory" vertex="1">
          <mxGeometry y="26" width="380" height="44" as="geometry" />
        </mxCell>
        <mxCell id="FormatterFactory-line" value="" style="line;strokeWidth=1;fillColor=none;align=left;verticalAlign=middle;spacingTop=-1;spacingLeft=3;spacingRight=3;rotatable=0;labelPosition=right;points=[];portConstraint=eastwest;" parent="FormatterFactory" vertex="1">
          <mxGeometry y="70" width="380" height="8" as="geometry" />
        </mxCell>
        <mxCell id="FormatterFactory-methods" value="+ __new__(cls, *args, **kwargs): FormatterFactory&#xa;+ __init__(configuration: Configuration): void&#xa;+ get_formatter(module_name: str, class_name: str): FormatterObject" style="text;strokeColor=none;fillColor=none;align=left;verticalAlign=top;spacingLeft=4;spacingRight=4;overflow=hidden;rotatable=0;points=[[0,0.5],[1,0.5]];portConstraint=eastwest;" parent="FormatterFactory" vertex="1">
          <mxGeometry y="78" width="380" height="52" as="geometry" />
        </mxCell>
        <mxCell id="FormatterObject" value="FormatterObject" style="swimlane;fontStyle=1;align=center;verticalAlign=top;childLayout=stackLayout;horizontal=1;startSize=26;horizontalStack=0;resizeParent=1;resizeParentMax=0;resizeLast=0;collapsible=1;marginBottom=0;fillColor=#dae8fc;strokeColor=#6c8ebf;" parent="WIyWlLk6GJQsqaUBKTNV-1" vertex="1">
          <mxGeometry x="390" y="520" width="400" height="160" as="geometry" />
        </mxCell>
        <mxCell id="FormatterObject-attributes" value="- _instance: FormatterObject&#xa;- _logging_utils: LoggingUtils&#xa;- _json_utils: JsonUtils&#xa;- _generic_utils: GenericUtils&#xa;- _config: Configuration" style="text;strokeColor=none;fillColor=none;align=left;verticalAlign=top;spacingLeft=4;spacingRight=4;overflow=hidden;rotatable=0;points=[[0,0.5],[1,0.5]];portConstraint=eastwest;" parent="FormatterObject" vertex="1">
          <mxGeometry y="26" width="400" height="74" as="geometry" />
        </mxCell>
        <mxCell id="FormatterObject-line" value="" style="line;strokeWidth=1;fillColor=none;align=left;verticalAlign=middle;spacingTop=-1;spacingLeft=3;spacingRight=3;rotatable=0;labelPosition=right;points=[];portConstraint=eastwest;" parent="FormatterObject" vertex="1">
          <mxGeometry y="100" width="400" height="8" as="geometry" />
        </mxCell>
        <mxCell id="FormatterObject-methods" value="+ __new__(cls, *args, **kwargs): FormatterObject&#xa;+ __init__(configuration: Configuration): void&#xa;+ format_json(data: Dict[str, str], variables: Dict[str, str] = None): str" style="text;strokeColor=none;fillColor=none;align=left;verticalAlign=top;spacingLeft=4;spacingRight=4;overflow=hidden;rotatable=0;points=[[0,0.5],[1,0.5]];portConstraint=eastwest;" parent="FormatterObject" vertex="1">
          <mxGeometry y="108" width="400" height="52" as="geometry" />
        </mxCell>
        <mxCell id="Jinja2JsonToMarkdownFormatter" value="Jinja2JsonToMarkdownFormatter" style="swimlane;fontStyle=1;align=center;verticalAlign=top;childLayout=stackLayout;horizontal=1;startSize=26;horizontalStack=0;resizeParent=1;resizeParentMax=0;resizeLast=0;collapsible=1;marginBottom=0;fillColor=#dae8fc;strokeColor=#6c8ebf;" parent="WIyWlLk6GJQsqaUBKTNV-1" vertex="1">
          <mxGeometry x="190" y="770" width="370" height="90" as="geometry" />
        </mxCell>
        <mxCell id="Jinja2JsonToMarkdownFormatter-line" value="" style="line;strokeWidth=1;fillColor=none;align=left;verticalAlign=middle;spacingTop=-1;spacingLeft=3;spacingRight=3;rotatable=0;labelPosition=right;points=[];portConstraint=eastwest;" parent="Jinja2JsonToMarkdownFormatter" vertex="1">
          <mxGeometry y="26" width="370" height="8" as="geometry" />
        </mxCell>
        <mxCell id="Jinja2JsonToMarkdownFormatter-methods" value="+ __init__(configuration: Configuration): void&#xa;- _load_template(template_path: str): str&#xa;+ format_json(data: Dict[str, str], variables: Dict[str, str] = None): str" style="text;strokeColor=none;fillColor=none;align=left;verticalAlign=top;spacingLeft=4;spacingRight=4;overflow=hidden;rotatable=0;points=[[0,0.5],[1,0.5]];portConstraint=eastwest;" parent="Jinja2JsonToMarkdownFormatter" vertex="1">
          <mxGeometry y="34" width="370" height="56" as="geometry" />
        </mxCell>
        <mxCell id="CodedJsonToMarkdownFormatter" value="CodedJsonToMarkdownFormatter" style="swimlane;fontStyle=1;align=center;verticalAlign=top;childLayout=stackLayout;horizontal=1;startSize=26;horizontalStack=0;resizeParent=1;resizeParentMax=0;resizeLast=0;collapsible=1;marginBottom=0;fillColor=#dae8fc;strokeColor=#6c8ebf;" parent="WIyWlLk6GJQsqaUBKTNV-1" vertex="1">
          <mxGeometry x="600" y="770" width="370" height="80" as="geometry" />
        </mxCell>
        <mxCell id="CodedJsonToMarkdownFormatter-line" value="" style="line;strokeWidth=1;fillColor=none;align=left;verticalAlign=middle;spacingTop=-1;spacingLeft=3;spacingRight=3;rotatable=0;labelPosition=right;points=[];portConstraint=eastwest;" parent="CodedJsonToMarkdownFormatter" vertex="1">
          <mxGeometry y="26" width="370" height="8" as="geometry" />
        </mxCell>
        <mxCell id="CodedJsonToMarkdownFormatter-methods" value="+ __init__(configuration: Configuration): void&#xa;+ format_json(data: Dict[str, str], variables: Dict[str, str] = None): str" style="text;strokeColor=none;fillColor=none;align=left;verticalAlign=top;spacingLeft=4;spacingRight=4;overflow=hidden;rotatable=0;points=[[0,0.5],[1,0.5]];portConstraint=eastwest;" parent="CodedJsonToMarkdownFormatter" vertex="1">
          <mxGeometry y="34" width="370" height="46" as="geometry" />
        </mxCell>
        <mxCell id="inheritException" value="" style="endArrow=block;endSize=14;endFill=0;html=1;exitX=0.5;exitY=0;exitDx=0;exitDy=0;entryX=0.5;entryY=1;entryDx=0;entryDy=0;edgeStyle=orthogonalEdgeStyle;" parent="WIyWlLk6GJQsqaUBKTNV-1" source="FormatterError" target="Exception" edge="1">
          <mxGeometry width="160" relative="1" as="geometry">
            <mxPoint x="340" y="790" as="sourcePoint" />
            <mxPoint x="500" y="790" as="targetPoint" />
          </mxGeometry>
        </mxCell>
        <mxCell id="R6Kt-xQA-DNofmsM7JSM-7" value="extends" style="edgeLabel;html=1;align=center;verticalAlign=middle;resizable=0;points=[];" parent="inheritException" vertex="1" connectable="0">
          <mxGeometry x="-0.1529" y="2" relative="1" as="geometry">
            <mxPoint as="offset" />
          </mxGeometry>
        </mxCell>
        <mxCell id="comp1" value="" style="endArrow=diamondThin;endFill=1;endSize=14;html=1;exitX=0.5;exitY=0;exitDx=0;exitDy=0;entryX=0.584;entryY=0.972;entryDx=0;entryDy=0;entryPerimeter=0;startArrow=open;startFill=0;startSize=12;" parent="WIyWlLk6GJQsqaUBKTNV-1" source="Configuration" target="FormatterUtils-methods" edge="1">
          <mxGeometry width="160" relative="1" as="geometry">
            <mxPoint x="330" y="400" as="sourcePoint" />
            <mxPoint x="490" y="400" as="targetPoint" />
          </mxGeometry>
        </mxCell>
        <mxCell id="comp1-label" value="1" style="edgeLabel;html=1;align=center;verticalAlign=middle;resizable=0;points=[];" parent="comp1" vertex="1" connectable="0">
          <mxGeometry x="-0.8" y="1" relative="1" as="geometry">
            <mxPoint x="-4" y="-47" as="offset" />
          </mxGeometry>
        </mxCell>
        <mxCell id="comp2" value="" style="endArrow=diamondThin;endFill=1;endSize=14;html=1;exitX=1;exitY=0.5;exitDx=0;exitDy=0;entryX=-0.005;entryY=0.169;entryDx=0;entryDy=0;entryPerimeter=0;startArrow=open;startFill=0;startSize=12;" parent="WIyWlLk6GJQsqaUBKTNV-1" source="Configuration" target="FormatterFactory" edge="1">
          <mxGeometry width="160" relative="1" as="geometry">
            <mxPoint x="330" y="400" as="sourcePoint" />
            <mxPoint x="490" y="400" as="targetPoint" />
          </mxGeometry>
        </mxCell>
        <mxCell id="comp2-label" value="1" style="edgeLabel;html=1;align=center;verticalAlign=middle;resizable=0;points=[];" parent="comp2" vertex="1" connectable="0">
          <mxGeometry x="-0.8" y="1" relative="1" as="geometry">
            <mxPoint x="137" y="-15" as="offset" />
          </mxGeometry>
        </mxCell>
        <mxCell id="comp3" value="" style="endArrow=diamondThin;endFill=1;endSize=14;html=1;exitX=1;exitY=0.5;exitDx=0;exitDy=0;entryX=0;entryY=0.25;entryDx=0;entryDy=0;startArrow=open;startFill=0;startSize=12;" parent="WIyWlLk6GJQsqaUBKTNV-1" source="LoggingUtils" target="FormatterObject" edge="1">
          <mxGeometry width="160" relative="1" as="geometry">
            <mxPoint x="330" y="400" as="sourcePoint" />
            <mxPoint x="490" y="400" as="targetPoint" />
          </mxGeometry>
        </mxCell>
        <mxCell id="comp3-label" value="1" style="edgeLabel;html=1;align=center;verticalAlign=middle;resizable=0;points=[];" parent="comp3" vertex="1" connectable="0">
          <mxGeometry x="-0.8" y="1" relative="1" as="geometry">
            <mxPoint x="52" y="25" as="offset" />
          </mxGeometry>
        </mxCell>
        <mxCell id="comp4" value="" style="endArrow=diamondThin;endFill=1;endSize=14;html=1;entryX=0.138;entryY=0.013;entryDx=0;entryDy=0;entryPerimeter=0;startArrow=openThin;startFill=0;startSize=12;exitX=0.5;exitY=1;exitDx=0;exitDy=0;" parent="WIyWlLk6GJQsqaUBKTNV-1" source="JsonUtils" target="FormatterObject" edge="1">
          <mxGeometry width="160" relative="1" as="geometry">
            <mxPoint x="390" y="450" as="sourcePoint" />
            <mxPoint x="490" y="400" as="targetPoint" />
          </mxGeometry>
        </mxCell>
        <mxCell id="WywHdnLFUjQe2zLAojK8-9" value="1" style="edgeLabel;html=1;align=center;verticalAlign=middle;resizable=0;points=[];" parent="comp4" vertex="1" connectable="0">
          <mxGeometry x="-0.9192" y="1" relative="1" as="geometry">
            <mxPoint x="62" y="67" as="offset" />
          </mxGeometry>
        </mxCell>
        <mxCell id="comp5" value="" style="endArrow=diamondThin;endFill=1;endSize=14;html=1;exitX=0;exitY=0.5;exitDx=0;exitDy=0;entryX=1;entryY=0.5;entryDx=0;entryDy=0;startArrow=open;startFill=0;startSize=12;" parent="WIyWlLk6GJQsqaUBKTNV-1" source="GenericUtils" target="FormatterObject-attributes" edge="1">
          <mxGeometry width="160" relative="1" as="geometry">
            <mxPoint x="330" y="400" as="sourcePoint" />
            <mxPoint x="490" y="400" as="targetPoint" />
          </mxGeometry>
        </mxCell>
        <mxCell id="comp5-label" value="1" style="edgeLabel;html=1;align=center;verticalAlign=middle;resizable=0;points=[];" parent="comp5" vertex="1" connectable="0">
          <mxGeometry x="-0.8" y="1" relative="1" as="geometry">
            <mxPoint x="-57" y="1" as="offset" />
          </mxGeometry>
        </mxCell>
        <mxCell id="comp6" value="" style="endArrow=diamondThin;endFill=1;endSize=14;html=1;exitX=0.5;exitY=0;exitDx=0;exitDy=0;entryX=0.25;entryY=1;entryDx=0;entryDy=0;startArrow=open;startFill=0;startSize=12;" parent="WIyWlLk6GJQsqaUBKTNV-1" source="GenericUtils" target="FormatterFactory" edge="1">
          <mxGeometry width="160" relative="1" as="geometry">
            <mxPoint x="330" y="400" as="sourcePoint" />
            <mxPoint x="490" y="400" as="targetPoint" />
          </mxGeometry>
        </mxCell>
        <mxCell id="comp6-label" value="1" style="edgeLabel;html=1;align=center;verticalAlign=middle;resizable=0;points=[];" parent="comp6" vertex="1" connectable="0">
          <mxGeometry x="-0.8" y="1" relative="1" as="geometry">
            <mxPoint x="-5" y="-47" as="offset" />
          </mxGeometry>
        </mxCell>
        <mxCell id="comp7" value="" style="endArrow=diamondThin;endFill=1;endSize=14;html=1;exitX=0.5;exitY=1;exitDx=0;exitDy=0;entryX=0.5;entryY=0;entryDx=0;entryDy=0;startArrow=open;startFill=0;startSize=12;" parent="WIyWlLk6GJQsqaUBKTNV-1" source="Configuration" target="FormatterObject" edge="1">
          <mxGeometry width="160" relative="1" as="geometry">
            <mxPoint x="330" y="400" as="sourcePoint" />
            <mxPoint x="490" y="400" as="targetPoint" />
          </mxGeometry>
        </mxCell>
        <mxCell id="comp7-label" value="1" style="edgeLabel;html=1;align=center;verticalAlign=middle;resizable=0;points=[];" parent="comp7" vertex="1" connectable="0">
          <mxGeometry x="-0.8" y="1" relative="1" as="geometry">
            <mxPoint x="-15" y="38" as="offset" />
          </mxGeometry>
        </mxCell>
        <mxCell id="WywHdnLFUjQe2zLAojK8-5" value="extends" style="edgeStyle=none;rounded=0;orthogonalLoop=1;jettySize=auto;html=1;entryX=0.248;entryY=0.981;entryDx=0;entryDy=0;entryPerimeter=0;endArrow=block;endFill=0;endSize=14;" parent="WIyWlLk6GJQsqaUBKTNV-1" source="Jinja2JsonToMarkdownFormatter" target="FormatterObject-methods" edge="1">
          <mxGeometry relative="1" as="geometry" />
        </mxCell>
        <mxCell id="WywHdnLFUjQe2zLAojK8-6" style="edgeStyle=none;rounded=0;orthogonalLoop=1;jettySize=auto;html=1;entryX=0.79;entryY=0.942;entryDx=0;entryDy=0;entryPerimeter=0;endArrow=block;endFill=0;endSize=14;" parent="WIyWlLk6GJQsqaUBKTNV-1" source="CodedJsonToMarkdownFormatter" target="FormatterObject-methods" edge="1">
          <mxGeometry relative="1" as="geometry" />
        </mxCell>
        <mxCell id="R6Kt-xQA-DNofmsM7JSM-8" value="extends" style="edgeLabel;html=1;align=center;verticalAlign=middle;resizable=0;points=[];" parent="WywHdnLFUjQe2zLAojK8-6" vertex="1" connectable="0">
          <mxGeometry x="0.0119" y="1" relative="1" as="geometry">
            <mxPoint as="offset" />
          </mxGeometry>
        </mxCell>
        <mxCell id="JsonUtils" value="JsonUtils" style="swimlane;fontStyle=1;align=center;verticalAlign=top;childLayout=stackLayout;horizontal=1;startSize=26;horizontalStack=0;resizeParent=1;resizeParentMax=0;resizeLast=0;collapsible=1;marginBottom=0;fillColor=#e1d5e7;strokeColor=#9673a6;" parent="WIyWlLk6GJQsqaUBKTNV-1" vertex="1">
          <mxGeometry x="305" y="410" width="160" height="30" as="geometry" />
        </mxCell>
        <mxCell id="R6Kt-xQA-DNofmsM7JSM-0" value="Singleton Pattern" style="shape=note;whiteSpace=wrap;html=1;backgroundOutline=1;darkOpacity=0.05;rotation=270;flipH=0;flipV=1;fillColor=#fff2cc;strokeColor=#d6b656;textDirection=vertical-lr;fontSize=11;" parent="WIyWlLk6GJQsqaUBKTNV-1" vertex="1">
          <mxGeometry x="890" y="640" width="60" height="100" as="geometry" />
        </mxCell>
        <mxCell id="R6Kt-xQA-DNofmsM7JSM-1" style="rounded=0;orthogonalLoop=1;jettySize=auto;html=1;entryX=0.998;entryY=0.385;entryDx=0;entryDy=0;entryPerimeter=0;endArrow=none;startFill=0;dashed=1;" parent="WIyWlLk6GJQsqaUBKTNV-1" source="R6Kt-xQA-DNofmsM7JSM-0" target="FormatterObject-methods" edge="1">
          <mxGeometry relative="1" as="geometry" />
        </mxCell>
        <mxCell id="R6Kt-xQA-DNofmsM7JSM-2" value="&lt;div&gt;Singleton Pattern&lt;/div&gt;Factory Pattern" style="shape=note;whiteSpace=wrap;html=1;backgroundOutline=1;darkOpacity=0.05;rotation=270;flipH=0;flipV=1;fillColor=#fff2cc;strokeColor=#d6b656;textDirection=vertical-lr;fontSize=11;" parent="WIyWlLk6GJQsqaUBKTNV-1" vertex="1">
          <mxGeometry x="1160" y="235" width="60" height="100" as="geometry" />
        </mxCell>
        <mxCell id="R6Kt-xQA-DNofmsM7JSM-4" style="rounded=0;orthogonalLoop=1;jettySize=auto;html=1;dashed=1;endArrow=none;startFill=0;entryX=0.813;entryY=-0.023;entryDx=0;entryDy=0;entryPerimeter=0;" parent="WIyWlLk6GJQsqaUBKTNV-1" source="R6Kt-xQA-DNofmsM7JSM-2" target="FormatterFactory" edge="1">
          <mxGeometry relative="1" as="geometry">
            <mxPoint x="1150" y="380" as="targetPoint" />
          </mxGeometry>
        </mxCell>
        <mxCell id="XlueOlKc162Obbzx5k_F-0" value="jinja2" style="shape=folder;fontStyle=1;spacingTop=10;tabWidth=40;tabHeight=14;tabPosition=left;html=1;whiteSpace=wrap;" parent="WIyWlLk6GJQsqaUBKTNV-1" vertex="1">
          <mxGeometry x="200" y="660" width="70" height="50" as="geometry" />
        </mxCell>
        <mxCell id="XlueOlKc162Obbzx5k_F-1" value="Use" style="endArrow=open;endSize=12;dashed=1;html=1;rounded=0;entryX=0.5;entryY=1;entryDx=0;entryDy=0;entryPerimeter=0;exitX=0.132;exitY=-0.011;exitDx=0;exitDy=0;exitPerimeter=0;" parent="WIyWlLk6GJQsqaUBKTNV-1" source="Jinja2JsonToMarkdownFormatter" target="XlueOlKc162Obbzx5k_F-0" edge="1">
          <mxGeometry width="160" relative="1" as="geometry">
            <mxPoint x="80" y="710" as="sourcePoint" />
            <mxPoint x="240" y="710" as="targetPoint" />
          </mxGeometry>
        </mxCell>
        <mxCell id="MKq4LAPIszceC8ej-Oz2-2" style="edgeStyle=orthogonalEdgeStyle;rounded=0;orthogonalLoop=1;jettySize=auto;html=1;entryX=0.432;entryY=1;entryDx=0;entryDy=0;entryPerimeter=0;endSize=12;dashed=1;endArrow=open;endFill=0;" parent="WIyWlLk6GJQsqaUBKTNV-1" source="FormatterFactory" target="CodedJsonToMarkdownFormatter-methods" edge="1">
          <mxGeometry relative="1" as="geometry">
            <Array as="points">
              <mxPoint x="1120" y="920" />
              <mxPoint x="760" y="920" />
            </Array>
          </mxGeometry>
        </mxCell>
        <mxCell id="MKq4LAPIszceC8ej-Oz2-0" style="edgeStyle=orthogonalEdgeStyle;rounded=0;orthogonalLoop=1;jettySize=auto;html=1;entryX=0.791;entryY=1.024;entryDx=0;entryDy=0;entryPerimeter=0;endSize=12;dashed=1;endArrow=open;endFill=0;" parent="WIyWlLk6GJQsqaUBKTNV-1" source="FormatterFactory" target="Jinja2JsonToMarkdownFormatter-methods" edge="1">
          <mxGeometry relative="1" as="geometry">
            <Array as="points">
              <mxPoint x="1120" y="920" />
              <mxPoint x="483" y="920" />
            </Array>
          </mxGeometry>
        </mxCell>
        <mxCell id="MKq4LAPIszceC8ej-Oz2-1" value="creates" style="edgeLabel;html=1;align=center;verticalAlign=middle;resizable=0;points=[];" parent="MKq4LAPIszceC8ej-Oz2-0" vertex="1" connectable="0">
          <mxGeometry x="-0.5952" y="2" relative="1" as="geometry">
            <mxPoint as="offset" />
          </mxGeometry>
        </mxCell>
        <mxCell id="DLjrTd6U8MhVlY8fL_aH-0" value="Singleton Pattern" style="shape=note;whiteSpace=wrap;html=1;backgroundOutline=1;darkOpacity=0.05;rotation=270;flipH=0;flipV=1;fillColor=#fff2cc;strokeColor=#d6b656;textDirection=vertical-lr;fontSize=11;" vertex="1" parent="WIyWlLk6GJQsqaUBKTNV-1">
          <mxGeometry x="260" y="170" width="60" height="100" as="geometry" />
        </mxCell>
        <mxCell id="DLjrTd6U8MhVlY8fL_aH-1" style="rounded=0;orthogonalLoop=1;jettySize=auto;html=1;entryX=0.006;entryY=1.088;entryDx=0;entryDy=0;entryPerimeter=0;exitX=0.367;exitY=0;exitDx=0;exitDy=0;exitPerimeter=0;endArrow=none;startFill=0;dashed=1;" edge="1" parent="WIyWlLk6GJQsqaUBKTNV-1" source="DLjrTd6U8MhVlY8fL_aH-0" target="FormatterUtils-attributes">
          <mxGeometry relative="1" as="geometry" />
        </mxCell>
      </root>
    </mxGraphModel>
  </diagram>
</mxfile>
